<?xml version="1.0" encoding="UTF-8" standalone="no"?>
<!-- Created with Inkscape (http://www.inkscape.org/) -->

<svg
   width="48"
   height="48"
   viewBox="0 0 12.7 12.7"
   version="1.1"
   id="svg1"
   inkscape:version="1.4 (86a8ad7, 2024-10-11)"
   sodipodi:docname="youtube.svg"
   xmlns:inkscape="http://www.inkscape.org/namespaces/inkscape"
   xmlns:sodipodi="http://sodipodi.sourceforge.net/DTD/sodipodi-0.dtd"
   xmlns="http://www.w3.org/2000/svg"
   xmlns:svg="http://www.w3.org/2000/svg">
  <sodipodi:namedview
     id="namedview1"
     pagecolor="#ffffff"
     bordercolor="#000000"
     borderopacity="0.25"
     inkscape:showpageshadow="2"
     inkscape:pageopacity="0.0"
     inkscape:pagecheckerboard="0"
     inkscape:deskcolor="#d1d1d1"
     inkscape:document-units="mm"
     showguides="false"
     inkscape:zoom="15.985057"
     inkscape:cx="24.429065"
     inkscape:cy="23.490689"
     inkscape:window-width="1920"
     inkscape:window-height="1002"
     inkscape:window-x="-8"
     inkscape:window-y="1072"
     inkscape:window-maximized="1"
     inkscape:current-layer="layer1" />
  <defs
     id="defs1" />
  <g
     inkscape:label="Calque 1"
     inkscape:groupmode="layer"
     id="layer1">
    <path
       d="m 2.8448423,6.1178236 c 0.040569,0 0.07232,-0.033514 0.07232,-0.074083 V 5.5763094 L 3.5451066,4.9554201 c 0.045861,-0.044097 0.010583,-0.07232 -0.029986,-0.07232 H 3.2752314 c -0.052917,0 -0.084667,0.033514 -0.1234723,0.074083 L 2.7654672,5.3187814 2.4091614,4.957184 C 2.3703558,4.9166145 2.3403697,4.8831006 2.287453,4.8831006 H 2.0616751 c -0.04057,0 -0.082903,0.024694 -0.037042,0.07232 L 2.608481,5.5727816 v 0.4709586 c 0,0.04057 0.03175,0.074083 0.07232,0.074083 z M 4.1201344,5.1935452 c -0.3245558,0.00176 -0.6667504,0.09525 -0.6667504,0.5062365 0,0.2046112 0.1164167,0.3862919 0.4180419,0.4462641 0.052917,0.010583 0.1516945,0.017639 0.2504724,0.017639 0.091722,0 0.1834445,-0.00529 0.2381251,-0.017639 0.2980975,-0.059972 0.4145142,-0.2416529 0.4145142,-0.4462641 0,-0.3686531 -0.3263197,-0.5080004 -0.6544032,-0.5062365 z m -0.00706,0.7408338 c -0.2663474,0 -0.3651252,-0.1058334 -0.3651252,-0.2575279 0,-0.091722 0.058208,-0.2628196 0.3563058,-0.2628196 0.2469446,0 0.3739447,0.1322917 0.3739447,0.2487085 0,0.2116668 -0.160514,0.271639 -0.3651253,0.271639 z m 1.4534455,0.1834446 c 0.1040695,-0.00176 0.2416529,-0.033514 0.3492502,-0.093486 v 0.029986 c 0,0.035278 0.029986,0.0635 0.065264,0.0635 h 0.176389 c 0.035278,0 0.067028,-0.028222 0.067028,-0.0635 V 5.3011425 c 0,-0.035278 -0.03175,-0.065264 -0.067028,-0.065264 H 5.9792746 c -0.035278,0 -0.0635,0.029986 -0.0635,0.065264 v 0.5097642 c -0.052917,0.045861 -0.1781529,0.075847 -0.3016252,0.075847 -0.1481667,0 -0.2910418,-0.045861 -0.2910418,-0.1675695 V 5.3046703 c 0,-0.038806 -0.029986,-0.068792 -0.067028,-0.068792 H 5.0832184 c -0.038805,0 -0.068792,0.029986 -0.068792,0.068792 v 0.4303892 c 0,0.3721808 0.3827642,0.3880558 0.5520976,0.3827641 z m 1.6033746,0 c 0.028222,0 0.047625,-0.019403 0.047625,-0.047625 V 5.9379068 c 0,-0.028222 -0.017639,-0.047625 -0.047625,-0.047625 C 6.9035516,5.8991012 6.8541626,5.823254 6.8541626,5.6909622 V 5.4316704 h 0.2875141 c 0.042333,0 0.075847,-0.017639 0.075847,-0.049389 V 5.2729203 c 0,-0.03175 -0.03175,-0.051153 -0.075847,-0.051153 H 6.8541626 V 4.9748229 c 0,-0.035278 -0.029986,-0.0635 -0.070556,-0.0635 H 6.6460236 c -0.04057,0 -0.074083,0.028222 -0.074083,0.0635 l 0.00176,0.2451807 h -0.065264 c -0.042333,0 -0.075847,0.019403 -0.075847,0.042333 v 0.1252362 c 0,0.022931 0.033514,0.044097 0.075847,0.044097 h 0.065264 L 6.5719402,5.69449 c -0.00176,0.3986391 0.273403,0.4215697 0.5979587,0.4233336 z m 0.7955135,0 c 0.1040695,-0.00176 0.241653,-0.033514 0.3492503,-0.093486 v 0.029986 c 0,0.035278 0.029986,0.0635 0.065264,0.0635 h 0.176389 c 0.035278,0 0.067028,-0.028222 0.067028,-0.0635 V 5.3011425 c 0,-0.035278 -0.03175,-0.065264 -0.067028,-0.065264 H 8.3781627 c -0.035278,0 -0.0635,0.029986 -0.0635,0.065264 v 0.5097642 c -0.052917,0.045861 -0.1781529,0.075847 -0.3016252,0.075847 -0.1481668,0 -0.2910419,-0.045861 -0.2910419,-0.1675695 V 5.3046703 c 0,-0.038806 -0.029986,-0.068792 -0.067028,-0.068792 H 7.4821066 c -0.038806,0 -0.068792,0.029986 -0.068792,0.068792 v 0.4303892 c 0,0.3721808 0.3827642,0.3880558 0.5520976,0.3827641 z m 1.0301109,-1.234723 c -0.042333,0 -0.077611,0.033514 -0.077611,0.074083 v 0.4445002 c 0,0.035278 0.024694,0.059972 0.059972,0.059972 l 0.5538614,-0.00176 c 0.1393474,0 0.2786947,0.033514 0.2786947,0.2169585 0,0.1481668 -0.1428751,0.1975557 -0.257528,0.1993196 H 9.2265929 V 5.6856705 c 0,-0.037042 -0.028222,-0.065264 -0.0635,-0.065264 h -0.176389 c -0.038806,0 -0.068792,0.028222 -0.068792,0.065264 v 0.3668892 c 0,0.049389 0.03175,0.065264 0.072319,0.065264 l 0.5997226,-0.00176 c 0.3898197,-0.00882 0.5309308,-0.2257779 0.5309308,-0.4409725 0,-0.2293057 -0.1446389,-0.4445003 -0.5027085,-0.4445003 H 9.2265929 V 4.957184 c 0,-0.04057 -0.033514,-0.074083 -0.074083,-0.074083 z m 1.8556137,0.6808615 c -0.02822,0 -0.04763,0.019403 -0.04763,0.047625 l -0.0018,0.067028 c 0,0.028222 0.0194,0.047625 0.04763,0.047625 h 0.624417 c 0.03351,0 0.05821,-0.022931 0.05645,-0.056444 -0.01764,-0.3333752 -0.188737,-0.4550836 -0.605015,-0.4550836 -0.328083,0 -0.596194,0.077611 -0.596194,0.4744864 0,0.3439586 0.3175,0.4427364 0.60325,0.4427364 0.218722,0 0.479778,-0.052917 0.5715,-0.2786946 0.01058,-0.026458 -0.0018,-0.044097 -0.03175,-0.044097 h -0.209903 c -0.02293,0 -0.0441,0.012347 -0.0635,0.044097 -0.05115,0.067028 -0.218722,0.081139 -0.254,0.081139 -0.162278,0 -0.303389,-0.024694 -0.303389,-0.2698751 0,-0.2240141 0.10407,-0.2557641 0.305153,-0.2557641 0.114653,0 0.271639,0.029986 0.271639,0.1552223 z"
       id="text1"
       style="font-size:1.76389px;font-family:'DOVENS Personal Use';-inkscape-font-specification:'DOVENS Personal Use';fill:#006680;stroke-width:1.058;stroke-linecap:round;stroke-linejoin:round"
       aria-label="Youtube" />
    <path
       id="path7"
       style="color:#000000;font-style:normal;font-variant:normal;font-weight:normal;font-stretch:normal;font-size:medium;line-height:normal;font-family:sans-serif;font-variant-ligatures:normal;font-variant-position:normal;font-variant-caps:normal;font-variant-numeric:normal;font-variant-alternates:normal;font-variant-east-asian:normal;font-feature-settings:normal;font-variation-settings:normal;text-indent:0;text-align:start;text-decoration-line:none;text-decoration-style:solid;text-decoration-color:#000000;letter-spacing:normal;word-spacing:normal;text-transform:none;writing-mode:lr-tb;direction:ltr;text-orientation:mixed;dominant-baseline:auto;baseline-shift:baseline;text-anchor:start;white-space:normal;shape-padding:0;shape-margin:0;inline-size:0;clip-rule:nonzero;display:inline;overflow:visible;visibility:visible;isolation:auto;mix-blend-mode:normal;color-interpolation:sRGB;color-interpolation-filters:linearRGB;solid-color:#000000;solid-opacity:1;vector-effect:none;fill:#162d50;fill-opacity:1;fill-rule:nonzero;stroke:#162d50;stroke-width:0.106291;stroke-linecap:round;stroke-linejoin:round;stroke-miterlimit:4;stroke-dasharray:none;stroke-dashoffset:0;stroke-opacity:1;-inkscape-stroke:none;color-rendering:auto;image-rendering:auto;shape-rendering:auto;text-rendering:auto;enable-background:accumulate;stop-color:#000000"
       d="M 2.7429238,3.6886471 C 2.6355643,3.6912717 2.5221517,3.6983108 2.4023739,3.7102884 1.3323492,3.8172906 0.78162303,4.2678058 0.54599244,4.8398155 0.31036168,5.411825 0.38544179,6.0969511 0.53665506,6.6816411 0.59464177,6.9058575 0.8598682,7.1400446 1.2892154,7.3837232 1.718563,7.6274019 2.3159239,7.8762457 3.0479909,8.1043158 3.3635348,8.2026212 3.7086424,8.2958322 4.0714532,8.3841708 4.2742496,8.7456319 4.616506,8.9631378 4.9833029,8.9636549 5.2199475,8.9624462 5.4499111,8.87073 5.6388066,8.7021451 6.5991688,8.8588754 7.6571397,8.9682498 8.7802693,9.0030377 9.9132352,9.0381338 10.709733,8.9744773 11.256726,8.8383656 11.803717,8.7022503 12.10487,8.4917917 12.232017,8.2288911 12.359162,7.9659906 12.307062,7.661882 12.172859,7.3507119 12.038661,7.0395416 11.821355,6.7171881 11.605899,6.4090365 11.593456,6.3912123 11.491354,6.2367652 11.451004,6.271718 c -0.03033,0.034961 0.07787,0.1645841 0.0903,0.1824139 0.214894,0.307348 0.42934,0.6268348 0.559106,0.9277238 0.129764,0.3008891 0.131395,0.522378 0.01835,0.7561306 -0.11305,0.2337525 -0.413242,0.412978 -0.948377,0.5461436 C 10.635243,8.8172944 9.8795322,8.8354309 8.7506631,8.8004654 7.6858622,8.7674854 6.7158321,8.6464327 5.8340181,8.4807333 5.991903,8.2507796 6.0784186,7.9638027 6.0791591,7.6675881 6.079166,6.9518077 5.5885378,6.3715427 4.9833025,6.3715211 4.3780461,6.3715069 3.8873841,6.9517823 3.8873911,7.6675881 3.8874505,7.7901439 3.9022083,7.9120704 3.9312228,8.0297244 3.6784434,7.9582564 3.3897291,7.9210823 3.1566368,7.8484641 2.4284976,7.6216176 1.8562465,7.4981516 1.4341686,7.2585987 1.0120905,7.0190457 0.65885288,6.8398425 0.61283908,6.6619223 0.46380824,6.0856697 0.39400118,5.4156077 0.61888269,4.8696961 0.8437626,4.3237844 1.2208828,4.0316524 2.2720327,3.9265376 2.7855449,3.8751868 3.1792095,3.9043628 3.4814243,3.978334 3.1092654,4.0563863 2.7306282,4.2901021 2.2561037,4.2097981 c 0,0 -0.2902496,0.5404001 0.4003109,0.4703432 0.6384294,-0.064768 1.6729883,-0.069334 1.8316092,-0.069703 0.00565,0.00524 0.031638,0.028617 0.031638,0.028617 0.00435,0.018498 0.021337,0.031258 0.040317,0.03032 0,0 1.2683513,-0.062813 2.7261567,0.076788 0.021603,0.00209 0.1934483,0.033881 0.1955965,-0.017741 C 7.4843741,4.6862134 7.3152872,4.6699898 7.2936058,4.6679479 5.8537339,4.5300638 4.6249912,4.5884977 4.5834311,4.5904999 4.5712662,4.5469894 4.5015022,4.3166985 4.2199216,4.0879142 3.9880905,3.8995516 3.6206971,3.7273068 3.0471666,3.6934256 c -0.095588,-0.00565 -0.1968833,-0.0074 -0.3042428,-0.00478 z"
       sodipodi:nodetypes="scsssscccsssscccsssscccccssscsccscccccccssss" />
  </g>
</svg>
